<svg width="42" height="42" viewBox="0 0 42 42" fill="none" xmlns="http://www.w3.org/2000/svg">
<path d="M39.5064 27.125L30.8876 35.7437C30.5668 36.0646 30.1949 36.3125 29.772 36.4875C29.3491 36.6625 28.9043 36.75 28.4376 36.75H26.2501C25.7543 36.75 25.3387 36.5823 25.0032 36.2469C24.6678 35.9115 24.5001 35.4958 24.5001 35V32.8125C24.5001 32.3458 24.5949 31.901 24.7845 31.4781C24.9741 31.0552 25.2293 30.6833 25.5501 30.3625L34.1689 21.7437C34.4314 21.4812 34.723 21.2917 35.0439 21.175C35.3647 21.0583 35.6855 21 36.0064 21C36.3564 21 36.6918 21.0656 37.0126 21.1969C37.3334 21.3281 37.6251 21.525 37.8876 21.7875L39.5064 23.4062C39.7397 23.6687 39.922 23.9604 40.0532 24.2812C40.1845 24.6021 40.2501 24.9229 40.2501 25.2437C40.2501 25.5646 40.1918 25.8927 40.0751 26.2281C39.9584 26.5635 39.7689 26.8625 39.5064 27.125ZM27.1251 34.125H28.7876L34.0814 28.7875L33.2939 27.9562L32.4626 27.1687L27.1251 32.4625V34.125ZM33.2939 27.9562L32.4626 27.1687L34.0814 28.7875L33.2939 27.9562ZM10.5001 17.5C9.04178 17.5 7.8022 16.9823 6.78136 15.9469C5.76053 14.9115 5.25011 13.6792 5.25011 12.25C5.25011 10.7917 5.76053 9.55208 6.78136 8.53125C7.8022 7.51042 9.04178 7 10.5001 7C11.9584 7 13.198 7.51042 14.2189 8.53125C15.2397 9.55208 15.7501 10.7917 15.7501 12.25C15.7501 13.6792 15.2397 14.9115 14.2189 15.9469C13.198 16.9823 11.9584 17.5 10.5001 17.5ZM10.5001 14C10.9959 14 11.4116 13.8323 11.747 13.4969C12.0824 13.1615 12.2501 12.7458 12.2501 12.25C12.2501 11.7542 12.0824 11.3385 11.747 11.0031C11.4116 10.6677 10.9959 10.5 10.5001 10.5C10.0043 10.5 9.58865 10.6677 9.25324 11.0031C8.91782 11.3385 8.75011 11.7542 8.75011 12.25C8.75011 12.7458 8.91782 13.1615 9.25324 13.4969C9.58865 13.8323 10.0043 14 10.5001 14ZM11.1126 21C11.8126 21 12.4543 21.1823 13.0376 21.5469C13.6209 21.9115 14.0439 22.4292 14.3064 23.1L15.4876 25.9875C15.5459 26.1625 15.6772 26.2427 15.8814 26.2281C16.0855 26.2135 16.2168 26.1187 16.2751 25.9438L20.0376 13.3875C20.4459 11.9875 21.2262 10.8646 22.3782 10.0187C23.5303 9.17292 24.8355 8.75 26.2939 8.75C27.723 8.75 28.9991 9.16562 30.122 9.99688C31.2449 10.8281 32.0251 11.9146 32.4626 13.2562L33.6001 16.5813C33.8043 17.1354 33.7824 17.6094 33.5345 18.0031C33.2866 18.3969 32.9584 18.6667 32.5501 18.8125C32.1418 18.9583 31.7189 18.951 31.2814 18.7906C30.8439 18.6302 30.523 18.2729 30.3189 17.7188L29.1376 14.35C28.9043 13.6792 28.5397 13.1615 28.0439 12.7969C27.548 12.4323 26.9647 12.25 26.2939 12.25C25.623 12.25 25.0324 12.4396 24.522 12.8187C24.0116 13.1979 23.6397 13.7229 23.4064 14.3937L19.6439 26.95C19.3814 27.7667 18.9074 28.4375 18.222 28.9625C17.5366 29.4875 16.7564 29.75 15.8814 29.75C15.0939 29.75 14.3647 29.5385 13.6939 29.1156C13.023 28.6927 12.5418 28.1021 12.2501 27.3438L11.0689 24.4562L6.38761 34.0375C6.12511 34.5625 5.77511 34.876 5.33761 34.9781C4.90011 35.0802 4.4772 35.0292 4.06886 34.825C3.66053 34.6208 3.36157 34.3073 3.17199 33.8844C2.98241 33.4615 3.01886 32.9875 3.28136 32.4625L8.05011 22.925C8.34178 22.3417 8.7574 21.875 9.29699 21.525C9.83657 21.175 10.4418 21 11.1126 21Z" fill="#464646"/>
</svg>
