<svg width="34" height="30" viewBox="0 0 34 30" fill="none" xmlns="http://www.w3.org/2000/svg">
<path d="M0 26.25V23.1C0 22.1083 0.255208 21.1969 0.765625 20.3656C1.27604 19.5344 1.95417 18.9 2.8 18.4625C4.60833 17.5583 6.44583 16.8802 8.3125 16.4281C10.1792 15.976 12.075 15.75 14 15.75C15.0792 15.75 16.1437 15.8156 17.1938 15.9469C18.2437 16.0781 19.2937 16.2896 20.3438 16.5812L17.4125 19.5562C16.8292 19.4688 16.2604 19.3958 15.7063 19.3375C15.1521 19.2792 14.5833 19.25 14 19.25C12.3667 19.25 10.7479 19.4469 9.14375 19.8406C7.53958 20.2344 5.95 20.825 4.375 21.6125C4.1125 21.7583 3.90104 21.9625 3.74062 22.225C3.58021 22.4875 3.5 22.7792 3.5 23.1V24.5H14V28H1.75C1.25417 28 0.838542 27.8323 0.503125 27.4969C0.167708 27.1615 0 26.7458 0 26.25ZM17.5 28V25.8125C17.5 25.3458 17.5948 24.901 17.7844 24.4781C17.974 24.0552 18.2292 23.6833 18.55 23.3625L27.1687 14.7437C27.4312 14.4812 27.7229 14.2917 28.0437 14.175C28.3646 14.0583 28.6854 14 29.0063 14C29.3562 14 29.6917 14.0656 30.0125 14.1969C30.3333 14.3281 30.625 14.525 30.8875 14.7875L32.5062 16.4062C32.7396 16.6687 32.9219 16.9604 33.0531 17.2812C33.1844 17.6021 33.25 17.9229 33.25 18.2437C33.25 18.5646 33.1917 18.8927 33.075 19.2281C32.9583 19.5635 32.7687 19.8625 32.5062 20.125L23.8875 28.7437C23.5667 29.0646 23.1948 29.3125 22.7719 29.4875C22.349 29.6625 21.9042 29.75 21.4375 29.75H19.25C18.7542 29.75 18.3385 29.5823 18.0031 29.2469C17.6677 28.9115 17.5 28.4958 17.5 28ZM20.125 27.125H21.7875L27.0812 21.7875L26.2937 20.9562L25.4625 20.1687L20.125 25.4625V27.125ZM26.2937 20.9562L25.4625 20.1687L27.0812 21.7875L26.2937 20.9562ZM9.05625 11.9437C7.68542 10.5729 7 8.925 7 7C7 5.075 7.68542 3.42708 9.05625 2.05625C10.4271 0.685417 12.075 0 14 0C15.925 0 17.5729 0.685417 18.9438 2.05625C20.3146 3.42708 21 5.075 21 7C21 8.925 20.3146 10.5729 18.9438 11.9437C17.5729 13.3146 15.925 14 14 14C12.075 14 10.4271 13.3146 9.05625 11.9437ZM16.4719 9.47188C17.1573 8.78646 17.5 7.9625 17.5 7C17.5 6.0375 17.1573 5.21354 16.4719 4.52812C15.7865 3.84271 14.9625 3.5 14 3.5C13.0375 3.5 12.2135 3.84271 11.5281 4.52812C10.8427 5.21354 10.5 6.0375 10.5 7C10.5 7.9625 10.8427 8.78646 11.5281 9.47188C12.2135 10.1573 13.0375 10.5 14 10.5C14.9625 10.5 15.7865 10.1573 16.4719 9.47188Z" fill="#464646"/>
</svg>
