<svg width="32" height="32" viewBox="0 0 32 32" fill="none" xmlns="http://www.w3.org/2000/svg">
<path d="M8.75 18.375V16.625H12.25C12.7458 16.625 13.1615 16.4573 13.4969 16.1219C13.8323 15.7865 14 15.3708 14 14.875V12.25C14 11.7542 13.8323 11.3385 13.4969 11.0031C13.1615 10.6677 12.7458 10.5 12.25 10.5H7.4375C7.05833 10.5 6.74479 10.624 6.49687 10.8719C6.24896 11.1198 6.125 11.4333 6.125 11.8125C6.125 12.1917 6.24896 12.5052 6.49687 12.7531C6.74479 13.001 7.05833 13.125 7.4375 13.125H11.375V14.875H7.875C7.37917 14.875 6.96354 15.0427 6.62812 15.3781C6.29271 15.7135 6.125 16.1292 6.125 16.625V19.6875C6.125 20.0667 6.24896 20.3802 6.49687 20.6281C6.74479 20.876 7.05833 21 7.4375 21H12.6875C13.0667 21 13.3802 20.876 13.6281 20.6281C13.876 20.3802 14 20.0667 14 19.6875C14 19.3083 13.876 18.9948 13.6281 18.7469C13.3802 18.499 13.0667 18.375 12.6875 18.375H8.75ZM18.8125 21H23.625C24.3542 21 24.974 20.7448 25.4844 20.2344C25.9948 19.724 26.25 19.1042 26.25 18.375V13.125C26.25 12.3958 25.9948 11.776 25.4844 11.2656C24.974 10.7552 24.3542 10.5 23.625 10.5H18.8125C18.4333 10.5 18.1198 10.624 17.8719 10.8719C17.624 11.1198 17.5 11.4333 17.5 11.8125V19.6875C17.5 20.0667 17.624 20.3802 17.8719 20.6281C18.1198 20.876 18.4333 21 18.8125 21ZM20.125 18.375V13.125H23.625V18.375H20.125ZM3.5 31.5C2.5375 31.5 1.71354 31.1573 1.02812 30.4719C0.342708 29.7865 0 28.9625 0 28V3.5C0 2.5375 0.342708 1.71354 1.02812 1.02812C1.71354 0.342708 2.5375 0 3.5 0H28C28.9625 0 29.7865 0.342708 30.4719 1.02812C31.1573 1.71354 31.5 2.5375 31.5 3.5V28C31.5 28.9625 31.1573 29.7865 30.4719 30.4719C29.7865 31.1573 28.9625 31.5 28 31.5H3.5ZM3.5 28H28V3.5H3.5V28Z" fill="#464646"/>
</svg>
