<svg width="35" height="28" viewBox="0 0 35 28" fill="none" xmlns="http://www.w3.org/2000/svg">
<path d="M3.5 28C2.5375 28 1.71354 27.6573 1.02812 26.9719C0.342708 26.2865 0 25.4625 0 24.5V3.5C0 2.5375 0.342708 1.71354 1.02812 1.02812C1.71354 0.342708 2.5375 0 3.5 0H24.5C25.4625 0 26.2865 0.342708 26.9719 1.02812C27.6573 1.71354 28 2.5375 28 3.5V11.375L33.5125 5.8625C33.8042 5.57083 34.125 5.49792 34.475 5.64375C34.825 5.78958 35 6.06667 35 6.475V21.525C35 21.9333 34.825 22.2104 34.475 22.3562C34.125 22.5021 33.8042 22.4292 33.5125 22.1375L28 16.625V24.5C28 25.4625 27.6573 26.2865 26.9719 26.9719C26.2865 27.6573 25.4625 28 24.5 28H3.5ZM3.5 24.5H24.5V3.5H3.5V24.5Z" fill="#464646"/>
</svg>
