<svg width="35" height="35" viewBox="0 0 35 35" fill="none" xmlns="http://www.w3.org/2000/svg">
<path d="M12.25 35C10.5583 35 8.96875 34.6792 7.48125 34.0375C5.99375 33.3958 4.69583 32.5208 3.5875 31.4125C2.47917 30.3042 1.60417 29.0063 0.9625 27.5187C0.320833 26.0312 0 24.4417 0 22.75C0 20.3875 0.6125 18.2292 1.8375 16.275C3.0625 14.3208 4.66667 12.8333 6.65 11.8125C7.23333 10.675 7.95521 9.67604 8.81563 8.81563C9.67604 7.95521 10.675 7.23333 11.8125 6.65C12.775 4.66667 14.2479 3.0625 16.2312 1.8375C18.2146 0.6125 20.3875 0 22.75 0C24.4417 0 26.0312 0.320833 27.5187 0.9625C29.0063 1.60417 30.3042 2.47917 31.4125 3.5875C32.5208 4.69583 33.3958 5.99375 34.0375 7.48125C34.6792 8.96875 35 10.5583 35 12.25C35 14.7292 34.3875 16.9167 33.1625 18.8125C31.9375 20.7083 30.3333 22.1667 28.35 23.1875C27.7667 24.325 27.0448 25.324 26.1844 26.1844C25.324 27.0448 24.325 27.7667 23.1875 28.35C22.1667 30.3333 20.6792 31.9375 18.725 33.1625C16.7708 34.3875 14.6125 35 12.25 35ZM12.25 31.5C13.2125 31.5 14.1385 31.3542 15.0281 31.0625C15.9177 30.7708 16.7417 30.3333 17.5 29.75C15.8083 29.75 14.2188 29.4292 12.7312 28.7875C11.2437 28.1458 9.94583 27.2708 8.8375 26.1625C7.72917 25.0542 6.85417 23.7563 6.2125 22.2687C5.57083 20.7812 5.25 19.1917 5.25 17.5C4.66667 18.2583 4.22917 19.0823 3.9375 19.9719C3.64583 20.8615 3.5 21.7875 3.5 22.75C3.5 23.975 3.73333 25.1125 4.2 26.1625C4.66667 27.2125 5.29375 28.1313 6.08125 28.9187C6.86875 29.7062 7.7875 30.3333 8.8375 30.8C9.8875 31.2667 11.025 31.5 12.25 31.5ZM17.5 26.25C18.4625 26.25 19.4031 26.1042 20.3219 25.8125C21.2406 25.5208 22.0792 25.0833 22.8375 24.5C21.1167 24.5 19.5125 24.1719 18.025 23.5156C16.5375 22.8594 15.2396 21.9771 14.1312 20.8687C13.0229 19.7604 12.1406 18.4625 11.4844 16.975C10.8281 15.4875 10.5 13.8833 10.5 12.1625C9.91667 12.9208 9.47917 13.7594 9.1875 14.6781C8.89583 15.5969 8.75 16.5375 8.75 17.5C8.75 18.725 8.97604 19.8625 9.42812 20.9125C9.88021 21.9625 10.5146 22.8813 11.3313 23.6687C12.1187 24.4854 13.0375 25.1198 14.0875 25.5719C15.1375 26.024 16.275 26.25 17.5 26.25ZM22.75 21C23.275 21 23.7781 20.9562 24.2594 20.8687C24.7406 20.7812 25.2292 20.65 25.725 20.475C26.3667 18.725 26.4615 17.0406 26.0094 15.4219C25.5573 13.8031 24.7771 12.4396 23.6687 11.3313C22.5604 10.2229 21.1969 9.44271 19.5781 8.99062C17.9594 8.53854 16.275 8.63333 14.525 9.275C14.35 9.77083 14.2188 10.2594 14.1312 10.7406C14.0437 11.2219 14 11.725 14 12.25C14 13.475 14.226 14.6125 14.6781 15.6625C15.1302 16.7125 15.7646 17.6313 16.5812 18.4187C17.3687 19.2354 18.2875 19.8698 19.3375 20.3219C20.3875 20.774 21.525 21 22.75 21ZM29.75 17.5875C30.3333 16.8292 30.7708 15.9906 31.0625 15.0719C31.3542 14.1531 31.5 13.2125 31.5 12.25C31.5 11.025 31.274 9.8875 30.8219 8.8375C30.3698 7.7875 29.7354 6.86875 28.9187 6.08125C28.1313 5.26458 27.2125 4.63021 26.1625 4.17812C25.1125 3.72604 23.975 3.5 22.75 3.5C21.7292 3.5 20.774 3.64583 19.8844 3.9375C18.9948 4.22917 18.1708 4.66667 17.4125 5.25C19.1333 5.25 20.7375 5.57812 22.225 6.23438C23.7125 6.89062 25.0104 7.77292 26.1187 8.88125C27.2271 9.98958 28.1094 11.2875 28.7656 12.775C29.4219 14.2625 29.75 15.8667 29.75 17.5875Z" fill="#464646"/>
</svg>
