<svg width="34" height="32" viewBox="0 0 34 32" fill="none" xmlns="http://www.w3.org/2000/svg">
<path d="M3.5 31.5C3.00417 31.5 2.58854 31.3323 2.25312 30.9969C1.91771 30.6615 1.75 30.2458 1.75 29.75V25.5063C1.75 25.0396 1.8375 24.5948 2.0125 24.1719C2.1875 23.749 2.43542 23.3771 2.75625 23.0562L24.8062 1.05C25.1562 0.7 25.55 0.4375 25.9875 0.2625C26.425 0.0875 26.8625 0 27.3 0C27.7667 0 28.2115 0.0875 28.6344 0.2625C29.0573 0.4375 29.4292 0.7 29.75 1.05L32.2 3.5C32.55 3.82083 32.8125 4.19271 32.9875 4.61562C33.1625 5.03854 33.25 5.48333 33.25 5.95C33.25 6.3875 33.1625 6.825 32.9875 7.2625C32.8125 7.7 32.55 8.09375 32.2 8.44375L10.1937 30.4937C9.87292 30.8146 9.50104 31.0625 9.07812 31.2375C8.65521 31.4125 8.21042 31.5 7.74375 31.5H3.5ZM5.25 28H7.7L24.8937 10.85L23.6687 9.58125L22.4 8.35625L5.25 25.55V28ZM23.6687 9.58125L22.4 8.35625L24.8937 10.85L23.6687 9.58125ZM19.25 31.5C21.4083 31.5 23.4062 30.9604 25.2437 29.8813C27.0812 28.8021 28 27.3 28 25.375C28 24.4417 27.7667 23.6323 27.3 22.9469C26.8333 22.2615 26.2208 21.6271 25.4625 21.0437C25.0542 20.7521 24.6167 20.6062 24.15 20.6062C23.6833 20.6062 23.2896 20.7812 22.9688 21.1313C22.6479 21.4812 22.4875 21.9115 22.4875 22.4219C22.4875 22.9323 22.6917 23.3333 23.1 23.625C23.5083 23.9458 23.8438 24.2375 24.1062 24.5C24.3687 24.7625 24.5 25.0542 24.5 25.375C24.5 26.0458 23.9677 26.651 22.9031 27.1906C21.8385 27.7302 20.6208 28 19.25 28C18.7542 28 18.3385 28.1677 18.0031 28.5031C17.6677 28.8385 17.5 29.2542 17.5 29.75C17.5 30.2458 17.6677 30.6615 18.0031 30.9969C18.3385 31.3323 18.7542 31.5 19.25 31.5ZM10.5 5.25C10.5 5.65833 10.2448 6.03021 9.73438 6.36562C9.22396 6.70104 8.05 7.29167 6.2125 8.1375C3.87917 9.15833 2.26042 10.0844 1.35625 10.9156C0.452083 11.7469 0 12.775 0 14C0 14.7583 0.175 15.4292 0.525 16.0125C0.875 16.5958 1.32708 17.1062 1.88125 17.5437C2.26042 17.8646 2.68333 18.0031 3.15 17.9594C3.61667 17.9156 4.01042 17.7042 4.33125 17.325C4.65208 16.9458 4.79792 16.5229 4.76875 16.0562C4.73958 15.5896 4.53542 15.1958 4.15625 14.875C3.95208 14.7292 3.79167 14.5833 3.675 14.4375C3.55833 14.2917 3.5 14.1458 3.5 14C3.5 13.65 3.7625 13.3 4.2875 12.95C4.8125 12.6 5.92083 12.0604 7.6125 11.3313C10.1792 10.2229 11.8854 9.21667 12.7312 8.3125C13.5771 7.40833 14 6.3875 14 5.25C14 3.64583 13.3583 2.36979 12.075 1.42188C10.7917 0.473958 9.1 0 7 0C5.6875 0 4.51354 0.233333 3.47812 0.7C2.44271 1.16667 1.64792 1.73542 1.09375 2.40625C0.772917 2.78542 0.641667 3.20833 0.7 3.675C0.758333 4.14167 0.977083 4.52083 1.35625 4.8125C1.73542 5.13333 2.15833 5.26458 2.625 5.20625C3.09167 5.14792 3.48542 4.95833 3.80625 4.6375C4.21458 4.22917 4.66667 3.9375 5.1625 3.7625C5.65833 3.5875 6.27083 3.5 7 3.5C8.19583 3.5 9.07812 3.675 9.64687 4.025C10.2156 4.375 10.5 4.78333 10.5 5.25Z" fill="#464646"/>
</svg>
