<svg width="1920" height="490" viewBox="0 0 1920 490" fill="none" xmlns="http://www.w3.org/2000/svg">
<path d="M561.842 -202.827C350.413 -580.34 484.817 -1057.67 862.029 -1268.93C1239.24 -1480.19 1716.46 -1345.41 1927.89 -967.893C2033.61 -779.136 2110.54 -538.094 2113.9 -317.776C2117.26 -97.4578 2046.99 101.98 1858.38 207.61C1669.78 313.24 1398.49 305 1147.93 223.178C897.366 141.355 667.556 -14.0706 561.823 -202.861L561.842 -202.827Z" stroke="url(#paint0_linear_289_1024)" stroke-width="0.43" stroke-miterlimit="10" stroke-linecap="round"/>
<path d="M2113.11 -315.98C2117.68 -129.09 2069.08 43.3023 1936.92 156.101C1912.52 176.975 1885.57 195.488 1855.8 211.441C1714.99 287.243 1530.64 296.168 1339.96 265.983C1273.81 255.467 1207.25 239.816 1142.09 219.509C1027.09 183.651 916.58 133.07 819.746 71.6322C703.314 -2.29751 606.934 -92.0967 548.529 -195.417C438.739 -389.683 424.594 -612.066 487.478 -811.107C547.487 -1000.65 677.25 -1169 860.101 -1271.41C1235.09 -1481.42 1713.65 -1340.86 1923.83 -965.575C2028.91 -777.951 2108.06 -536.747 2113.14 -315.912L2113.11 -315.98Z" stroke="url(#paint1_linear_289_1024)" stroke-width="0.43" stroke-miterlimit="10" stroke-linecap="round"/>
<path d="M2112.33 -314.15C2118.62 -126.196 2070.97 47.647 1935.39 160.834C1910.51 181.748 1883.18 199.892 1853.19 215.292C1711.51 288.514 1528.34 290.699 1335.83 260.862C1269.09 250.498 1201.92 235.367 1136.17 215.844C1020.14 181.371 908.807 132.694 810.857 73.6823C692.581 2.40688 594.343 -84.2801 535.162 -188.021C423.965 -383.031 413.19 -608.158 479.479 -809.556C542.92 -1001.66 676.291 -1172.16 858.079 -1273.97C1230.8 -1482.72 1710.78 -1336.42 1919.72 -963.361C2024.18 -776.833 2105.49 -535.537 2112.28 -314.165L2112.33 -314.15Z" stroke="url(#paint2_linear_289_1024)" stroke-width="0.43" stroke-miterlimit="10" stroke-linecap="round"/>
<path d="M2111.55 -312.319C2119.24 -123.252 2072.64 51.6684 1933.85 165.567C1908.41 186.438 1880.8 204.33 1850.61 219.125C1708.1 289.746 1526.13 285.225 1331.74 255.723C1264.4 245.509 1196.66 230.881 1130.33 212.176C1013.28 179.087 901.069 132.298 802.056 75.7286C681.936 7.1075 581.86 -76.4328 521.884 -180.63C409.28 -376.383 401.86 -604.199 471.535 -807.989C538.426 -1002.61 675.406 -1175.27 856.166 -1276.5C1226.66 -1484 1708.04 -1331.91 1915.69 -961.15C2019.52 -775.754 2102.6 -534.276 2111.55 -312.407L2111.55 -312.319Z" stroke="url(#paint3_linear_289_1024)" stroke-width="0.43" stroke-miterlimit="10" stroke-linecap="round"/>
<path d="M2110.81 -310.508C2120.06 -120.335 2074.51 55.8913 1932.34 170.335C1906.4 191.211 1878.43 208.681 1848.03 223.045C1704.51 290.722 1523.91 279.805 1327.65 250.672C1259.7 240.574 1191.38 226.501 1124.49 208.561C1006.43 176.891 893.318 131.956 793.261 77.8626C671.263 11.915 569.364 -68.5323 508.63 -173.116C394.62 -369.613 390.588 -600.138 463.669 -806.286C534.011 -1003.42 674.579 -1178.27 854.278 -1278.91C1222.51 -1485.14 1705.27 -1327.29 1911.67 -958.764C2014.87 -774.499 2100.01 -532.871 2110.83 -310.473L2110.81 -310.508Z" stroke="url(#paint4_linear_289_1024)" stroke-width="0.43" stroke-miterlimit="10" stroke-linecap="round"/>
<path d="M2110.04 -308.678C2120.94 -117.403 2076.35 60.1328 1930.84 175.049C1904.38 195.949 1876.1 213.046 1845.49 226.857C1701.1 291.866 1521.71 274.278 1323.58 245.566C1255.07 235.6 1186.14 222.047 1118.62 204.911C999.534 174.626 885.545 131.579 784.426 79.9275C660.496 16.6382 556.846 -60.6666 495.318 -165.706C379.882 -362.981 379.224 -596.161 455.691 -804.701C529.483 -1004.36 673.66 -1181.36 852.296 -1281.41C1218.31 -1486.39 1702.44 -1322.78 1907.59 -956.481C2010.16 -773.347 2097.37 -531.57 2110.06 -308.643L2110.04 -308.678Z" stroke="url(#paint5_linear_289_1024)" stroke-width="0.43" stroke-miterlimit="10" stroke-linecap="round"/>
<path d="M2109.26 -306.847C2121.8 -114.505 2078.21 64.356 1929.3 179.782C1902.35 200.688 1873.7 217.45 1842.87 230.709C1697.62 293.049 1519.45 268.79 1319.45 240.446C1250.33 230.596 1180.81 217.599 1112.73 201.227C992.619 172.327 877.719 131.187 775.571 81.9589C649.709 21.328 544.255 -52.8493 481.985 -158.329C365.142 -356.348 367.854 -592.271 447.726 -803.168C524.969 -1005.34 672.735 -1184.54 850.343 -1284.01C1214.13 -1487.74 1699.61 -1318.36 1903.51 -954.285C2005.46 -772.249 2094.71 -530.355 2109.24 -306.881L2109.26 -306.847Z" stroke="url(#paint6_linear_289_1024)" stroke-width="0.43" stroke-miterlimit="10" stroke-linecap="round"/>
<path d="M2108.49 -305.016C2122.67 -111.572 2080.07 68.6325 1927.77 184.516C1900.29 205.446 1871.34 221.835 1840.29 234.541C1694.18 294.212 1517.22 263.282 1315.35 235.307C1245.65 225.608 1175.57 213.146 1106.89 197.559C985.76 170.044 869.947 130.811 766.771 84.0053C638.978 26.0328 531.773 -45.0021 468.727 -150.903C350.443 -349.646 356.543 -588.278 439.856 -801.552C520.53 -1006.28 671.923 -1187.59 848.469 -1286.47C1209.99 -1488.94 1696.91 -1313.78 1899.54 -951.971C2000.86 -771.066 2092.17 -529.023 2108.58 -305.02L2108.49 -305.016Z" stroke="url(#paint7_linear_289_1024)" stroke-width="0.43" stroke-miterlimit="10" stroke-linecap="round"/>
<path d="M2107.75 -303.206C2123.52 -108.622 2081.94 72.8545 1926.27 189.229C1898.28 210.13 1869 226.254 1837.71 238.372C1690.74 295.375 1514.99 257.774 1311.23 230.186C1240.97 220.618 1170.24 208.697 1100.97 193.894C978.812 167.763 862.053 130.457 757.848 86.0739C628.089 30.779 519.149 -37.167 455.327 -143.489C335.617 -343.01 345.126 -584.316 431.79 -799.963C515.914 -1007.21 670.897 -1190.71 846.381 -1288.99C1205.67 -1490.22 1693.94 -1309.28 1895.32 -949.699C1996.01 -769.926 2089.42 -527.752 2107.66 -303.202L2107.75 -303.206Z" stroke="url(#paint8_linear_289_1024)" stroke-width="0.43" stroke-miterlimit="10" stroke-linecap="round"/>
<path d="M2106.97 -301.374C2124.43 -105.708 2083.79 77.1318 1924.73 193.963C1896.25 214.87 1866.64 230.639 1835.13 242.205C1687.33 296.52 1512.76 252.267 1307.15 225.082C1236.28 215.63 1165.01 204.245 1095.13 190.226C971.952 165.48 854.212 130.12 749.047 88.1211C617.288 35.5229 506.666 -29.3188 442.014 -136.077C320.898 -336.342 333.741 -580.372 423.845 -798.395C511.454 -1008.18 669.977 -1193.8 844.467 -1291.52C1201.5 -1491.48 1691.18 -1304.8 1891.32 -947.453C1991.38 -768.777 2086.86 -526.453 2106.95 -301.409L2106.97 -301.374Z" stroke="url(#paint9_linear_289_1024)" stroke-width="0.43" stroke-miterlimit="10" stroke-linecap="round"/>
<path d="M2106.2 -299.544C2125.3 -102.776 2085.68 81.3887 1923.21 198.731C1894.21 219.662 1864.27 235.077 1832.54 246.09C1683.87 297.736 1510.53 246.847 1303.04 219.996C1231.58 210.695 1159.7 199.831 1089.28 186.611C965.077 163.25 846.41 129.85 740.251 90.2548C606.472 40.3191 494.187 -21.3842 428.759 -128.564C306.236 -329.572 322.469 -576.311 415.943 -796.673C507.003 -1008.97 669.115 -1196.79 842.543 -1293.92C1197.35 -1492.63 1688.43 -1300.16 1887.28 -945.101C1986.71 -767.557 2084.31 -525.067 2106.18 -299.49L2106.2 -299.544Z" stroke="url(#paint10_linear_289_1024)" stroke-width="0.43" stroke-miterlimit="10" stroke-linecap="round"/>
<path d="M2105.4 -297.748C2126.18 -99.8438 2087.55 85.6117 1921.68 203.464C1892.18 224.401 1861.91 239.462 1829.96 249.923C1680.44 298.934 1508.3 241.339 1298.95 214.856C1226.88 205.672 1154.44 195.344 1083.43 182.908C958.198 160.932 838.516 129.496 731.431 92.2667C595.618 45.0469 481.631 -13.5865 415.462 -121.206C291.533 -322.959 310.653 -572.576 408.015 -795.16C502.059 -1010.17 668.245 -1199.95 840.611 -1296.48C1193.16 -1493.93 1685.61 -1295.7 1883.21 -942.871C1982.02 -766.459 2081.71 -523.838 2105.42 -297.713L2105.4 -297.748Z" stroke="url(#paint11_linear_289_1024)" stroke-width="0.43" stroke-miterlimit="10" stroke-linecap="round"/>
<path d="M2104.66 -295.937C2127.09 -96.9313 2089.44 89.8682 1920.18 208.178C1890.19 229.12 1859.55 243.846 1827.38 253.754C1677 300.097 1506.04 235.85 1294.82 209.735C1222.19 200.683 1149.11 190.895 1077.51 179.243C951.25 158.652 830.553 129.181 722.542 94.3165C584.694 49.8127 469.06 -5.73596 402.096 -113.811C276.74 -316.341 299.25 -568.668 400.016 -793.609C497.492 -1011.17 667.286 -1203.1 838.625 -1299.06C1188.94 -1495.26 1682.78 -1291.27 1879.13 -940.676C1977.3 -765.395 2079.11 -522.609 2104.64 -295.971L2104.66 -295.937Z" stroke="url(#paint12_linear_289_1024)" stroke-width="0.43" stroke-miterlimit="10" stroke-linecap="round"/>
<path d="M2103.89 -294.106C2127.97 -93.9989 2091.3 94.1449 1918.65 212.911C1888.13 233.878 1857.19 248.232 1824.8 257.587C1673.61 301.275 1503.81 230.343 1290.75 204.631C1217.53 195.728 1143.87 186.442 1071.69 175.609C944.41 156.402 822.717 128.931 713.762 96.3972C573.845 54.6285 456.578 2.11144 388.857 -106.351C262.095 -309.625 287.94 -564.675 392.131 -791.939C493.038 -1012.05 666.46 -1206.11 836.736 -1301.47C1184.79 -1496.4 1680.03 -1286.62 1875.11 -938.29C1972.67 -764.106 2076.58 -521.189 2103.93 -294.037L2103.89 -294.106Z" stroke="url(#paint13_linear_289_1024)" stroke-width="0.43" stroke-miterlimit="10" stroke-linecap="round"/>
<path d="M2103.11 -292.276C2128.85 -91.0674 2093.19 98.4013 1917.11 217.644C1886.12 238.65 1854.85 252.65 1822.24 261.452C1670.2 302.506 1501.6 224.868 1286.67 199.525C1212.85 190.739 1138.6 182.008 1065.86 171.94C937.57 154.152 814.808 128.63 704.927 98.4619C562.927 59.4818 444.062 9.97691 375.545 -98.941C247.376 -302.958 276.557 -560.732 384.187 -790.374C491.818 -1020.02 665.556 -1209.25 834.77 -1304.02C1180.6 -1497.7 1677.21 -1282.17 1871.05 -936.06C1967.97 -763.008 2074 -519.926 2103.13 -292.242L2103.11 -292.276Z" stroke="url(#paint14_linear_289_1024)" stroke-width="0.43" stroke-miterlimit="10" stroke-linecap="round"/>
<path d="M2102.34 -290.445C2129.78 -88.1196 2095.06 102.712 1915.57 222.378C1884.09 243.389 1852.45 257.054 1819.63 265.304C1666.76 303.67 1499.33 219.38 1282.54 194.405C1208.13 185.77 1133.31 177.541 1059.93 168.276C930.62 151.873 806.829 128.369 696.038 100.513C551.934 64.2869 431.47 17.7942 362.178 -91.5449C232.583 -296.34 265.118 -556.803 376.188 -788.822C483.977 -1014 664.615 -1212.37 832.802 -1306.57C1176.37 -1498.98 1674.37 -1277.69 1866.96 -933.811C1963.24 -761.89 2071.39 -518.643 2102.34 -290.445Z" stroke="url(#paint15_linear_289_1024)" stroke-width="0.43" stroke-miterlimit="10" stroke-linecap="round"/>
<path d="M2101.6 -288.634C2130.69 -85.2063 2096.98 106.951 1914.07 227.092C1882.06 248.128 1850.13 261.42 1817.08 269.117C1663.37 304.849 1497.14 213.854 1278.45 189.266C1203.46 180.728 1128.01 173.073 1054.1 164.608C923.761 149.589 798.939 128.104 687.237 102.559C541.05 69.1221 418.953 25.6609 348.919 -84.1186C217.918 -289.658 253.822 -552.864 368.283 -787.186C479.469 -1014.9 663.749 -1215.45 830.874 -1309.05C1172.22 -1500.22 1671.61 -1273.12 1862.93 -931.512C1958.6 -760.688 2068.88 -517.329 2101.62 -288.599L2101.6 -288.634Z" stroke="url(#paint16_linear_289_1024)" stroke-width="0.43" stroke-miterlimit="10" stroke-linecap="round"/>
<path d="M2100.82 -286.803C2131.62 -82.2592 2098.86 111.261 1912.56 231.86C1880.06 252.901 1847.75 265.858 1814.49 273.003C1659.92 306.1 1494.91 208.434 1274.36 184.214C1198.78 175.827 1122.76 168.674 1048.25 160.993C916.885 147.359 791.019 127.945 678.44 104.693C530.135 74.0636 406.474 33.5956 335.645 -76.6394C203.237 -282.922 242.496 -548.818 360.377 -785.551C475.013 -1015.78 662.868 -1218.47 828.965 -1311.49C1168.08 -1501.41 1668.85 -1268.56 1858.93 -929.179C1953.96 -759.487 2066.4 -515.982 2100.89 -286.754L2100.82 -286.803Z" stroke="url(#paint17_linear_289_1024)" stroke-width="0.43" stroke-miterlimit="10" stroke-linecap="round"/>
<path d="M2100.05 -284.972C2132.53 -79.3459 2100.77 115.553 1911.02 236.593C1878.03 257.64 1845.41 270.278 1811.91 276.835C1656.53 307.279 1492.68 202.926 1270.27 179.075C1194.09 170.839 1117.49 164.24 1042.36 157.31C909.972 145.06 783.007 127.703 669.587 106.724C519.163 78.9028 393.919 41.3935 322.279 -69.2436C188.465 -276.27 231.059 -544.889 352.345 -783.981C470.413 -1016.76 661.876 -1221.6 826.945 -1314.05C1163.8 -1502.71 1665.95 -1264.1 1854.76 -926.979C1949.16 -758.418 2063.73 -514.714 2100.03 -285.007L2100.05 -284.972Z" stroke="url(#paint18_linear_289_1024)" stroke-width="0.43" stroke-miterlimit="10" stroke-linecap="round"/>
<path d="M2099.27 -283.142C2133.43 -76.3794 2102.67 119.844 1909.49 241.327C1876 262.379 1843.05 274.663 1809.29 280.686C1653.09 308.53 1490.42 197.438 1266.14 173.955C1189.39 165.816 1112.19 159.773 1036.47 153.626C903.059 142.762 775.049 127.476 660.732 108.756C508.176 83.7952 381.382 49.2257 308.948 -61.8669C173.707 -269.671 219.709 -540.965 344.401 -782.414C469.093 -1023.86 660.991 -1224.71 824.998 -1316.56C1159.62 -1503.97 1663.18 -1259.57 1850.72 -924.714C1944.49 -757.285 2061.21 -513.435 2099.25 -283.176L2099.27 -283.142Z" stroke="url(#paint19_linear_289_1024)" stroke-width="0.43" stroke-miterlimit="10" stroke-linecap="round"/>
<path d="M2098.53 -281.333C2134.39 -73.4538 2104.58 124.133 1907.99 246.039C1873.98 267.115 1840.69 279.045 1806.75 284.497C1649.74 309.686 1488.23 191.908 1262.05 168.813C1184.71 160.824 1106.9 155.302 1030.63 149.955C896.199 140.475 767.11 127.281 651.932 110.799C497.223 88.6659 368.881 57.0359 295.689 -54.4436C159.042 -262.992 208.379 -537.009 336.511 -780.835C461.46 -1018.69 660.14 -1227.84 823.085 -1319.1C1155.45 -1505.24 1660.38 -1255.08 1846.67 -922.453C1939.83 -756.121 2058.68 -512.159 2098.51 -281.367L2098.53 -281.333Z" stroke="url(#paint20_linear_289_1024)" stroke-width="0.43" stroke-miterlimit="10" stroke-linecap="round"/>
<path d="M2097.75 -279.501C2135.32 -70.5051 2106.49 128.426 1906.47 250.808C1871.99 271.924 1838.37 283.5 1804.15 288.384C1646.3 310.939 1485.95 186.475 1257.96 163.763C1180.01 155.891 1101.65 150.905 1024.75 146.361C889.29 138.265 759.121 127.162 643.048 112.939C486.225 93.701 356.28 64.9955 282.327 -46.9587C144.239 -256.231 196.98 -533.011 328.483 -779.175C456.883 -1019.55 659.171 -1230.85 821.088 -1321.54C1151.23 -1506.43 1657.54 -1250.52 1842.58 -920.115C1935.1 -754.914 2056.13 -510.772 2097.72 -279.482L2097.75 -279.501Z" stroke="url(#paint21_linear_289_1024)" stroke-width="0.43" stroke-miterlimit="10" stroke-linecap="round"/>
<path d="M2096.98 -277.67C2136.23 -67.5921 2108.37 132.737 1904.94 255.541C1869.96 276.662 1835.97 287.904 1801.57 292.216C1642.93 312.152 1483.72 180.967 1253.86 158.624C1175.32 150.902 1096.35 146.437 1018.89 142.658C882.41 135.947 751.147 126.988 634.227 114.951C475.237 98.5933 343.758 72.774 269.029 -39.6014C129.515 -249.652 185.63 -529.087 320.572 -777.628C452.457 -1020.54 658.3 -1234.02 819.155 -1324.1C1147.03 -1507.73 1654.74 -1246.02 1838.52 -917.884C1930.41 -753.816 2053.58 -509.527 2096.96 -277.705L2096.98 -277.67Z" stroke="url(#paint22_linear_289_1024)" stroke-width="0.43" stroke-miterlimit="10" stroke-linecap="round"/>
<path d="M2096.2 -275.84C2137.2 -64.664 2110.27 137.028 1903.44 260.255C1867.93 281.401 1833.67 292.304 1798.99 296.048C1639.52 313.383 1481.49 175.459 1249.77 153.484C1170.65 145.86 1091.09 141.95 1013.06 138.989C875.549 133.664 743.226 126.83 625.426 116.997C464.288 103.554 331.274 80.6211 255.77 -32.1756C114.849 -242.97 174.353 -525.113 312.647 -776.027C447.963 -1021.49 657.434 -1237.09 817.227 -1326.58C1142.88 -1508.96 1651.97 -1241.5 1834.49 -915.586C1925.75 -752.649 2051.13 -508.199 2096.2 -275.84Z" stroke="url(#paint23_linear_289_1024)" stroke-width="0.43" stroke-miterlimit="10" stroke-linecap="round"/>
<path d="M2095.46 -274.029C2138.16 -61.7363 2112.18 141.319 1901.9 264.988C1865.91 286.139 1831.31 296.688 1796.43 299.914C1636.11 314.615 1479.3 170.02 1245.66 148.398C1165.95 140.924 1085.79 137.535 1007.19 135.34C868.675 131.433 735.238 126.709 616.611 119.096C453.309 108.622 318.777 88.5212 242.477 -24.7309C100.15 -236.269 162.989 -521.136 304.723 -774.427C446.456 -1027.72 656.549 -1240.2 815.314 -1329.11C1138.7 -1510.23 1649.21 -1237.02 1830.49 -913.341C1921.13 -751.501 2048.64 -506.94 2095.5 -274.048L2095.46 -274.029Z" stroke="url(#paint24_linear_289_1024)" stroke-width="0.43" stroke-miterlimit="10" stroke-linecap="round"/>
<path d="M2094.69 -272.199C2139.09 -58.7897 2114.11 145.644 1900.37 269.721C1863.9 290.912 1828.93 301.126 1793.82 303.765C1632.71 315.846 1477.03 164.531 1241.55 143.311C1161.25 135.988 1080.51 133.101 1001.29 131.709C861.746 129.187 727.234 126.642 607.741 121.18C442.292 113.621 306.206 96.3717 229.13 -17.3017C85.3965 -229.583 151.624 -517.159 296.763 -772.807C438.98 -1023.31 655.648 -1243.25 813.351 -1331.57C1134.51 -1511.44 1646.36 -1232.46 1826.38 -911.039C1916.38 -750.331 2046.1 -505.609 2094.69 -272.199Z" stroke="url(#paint25_linear_289_1024)" stroke-width="0.43" stroke-miterlimit="10" stroke-linecap="round"/>
<path d="M2093.89 -270.402C2140.06 -55.861 2116.02 149.937 1898.87 274.436C1861.87 295.651 1826.61 305.492 1791.27 307.578C1629.34 317.059 1474.84 159.004 1237.49 138.153C1156.58 130.947 1075.26 128.614 995.486 128.022C854.921 126.884 719.315 126.484 598.976 123.208C431.382 118.651 293.724 104.219 215.872 -9.87516C70.7124 -222.934 140.295 -513.2 288.839 -771.206C434.488 -1024.26 654.73 -1246.34 811.439 -1334.11C1130.37 -1512.73 1643.62 -1227.95 1822.37 -908.794C1911.74 -749.216 2043.63 -504.314 2093.98 -270.406L2093.89 -270.402Z" stroke="url(#paint26_linear_289_1024)" stroke-width="0.43" stroke-miterlimit="10" stroke-linecap="round"/>
<path d="M2093.12 -268.572C2141 -52.9673 2116.43 151.641 1897.35 279.203C1860.11 300.87 1824.25 309.964 1788.68 311.464C1625.92 318.345 1472.59 153.55 1233.35 133.086C1151.88 126.011 1069.95 124.2 989.582 124.392C847.992 124.639 711.311 126.417 590.072 125.311C420.315 123.723 281.119 112.09 202.491 -2.42623C55.9246 -216.229 128.896 -509.203 280.826 -769.601C429.925 -1025.17 653.775 -1249.41 809.423 -1336.58C1126.1 -1513.93 1640.73 -1223.4 1818.22 -906.472C1906.98 -747.992 2041.04 -502.997 2093.1 -268.518L2093.12 -268.572Z" stroke="url(#paint27_linear_289_1024)" stroke-width="0.43" stroke-miterlimit="10" stroke-linecap="round"/>
<path d="M2092.38 -266.761C2141.97 -50.0399 2118.36 155.966 1895.82 283.936C1858.09 305.608 1821.89 314.348 1786.1 315.295C1622.51 319.576 1470.36 148.042 1229.26 127.946C1147.18 120.987 1064.65 119.732 983.693 120.707C841.079 122.339 703.307 126.349 581.218 127.342C409.317 128.755 268.582 119.921 189.159 4.94957C41.1864 -209.597 117.546 -505.28 272.882 -768.035C425.432 -1026.12 652.871 -1252.55 807.456 -1339.13C1121.9 -1515.24 1637.91 -1218.94 1814.16 -904.243C1902.28 -746.894 2038.55 -501.738 2092.34 -266.742L2092.38 -266.761Z" stroke="url(#paint28_linear_289_1024)" stroke-width="0.43" stroke-miterlimit="10" stroke-linecap="round"/>
<path d="M2091.6 -264.93C2142.93 -47.1117 2120.32 160.273 1894.28 288.669C1856.05 310.4 1819.52 318.787 1783.49 319.146C1619.07 320.827 1468.1 142.553 1225.13 122.826C1142.46 116.018 1059.38 115.298 977.824 117.058C834.185 120.075 695.338 126.264 572.384 129.407C398.358 133.858 256.046 127.753 175.867 12.3948C26.4679 -202.93 106.201 -501.268 264.923 -766.415C420.958 -1027.04 651.971 -1255.6 805.528 -1341.61C1117.71 -1516.45 1635.12 -1214.36 1810.1 -901.925C1897.59 -745.708 2036.06 -500.391 2091.59 -264.877L2091.6 -264.93Z" stroke="url(#paint29_linear_289_1024)" stroke-width="0.43" stroke-miterlimit="10" stroke-linecap="round"/>
<path d="M2090.83 -263.099C2143.9 -44.1832 2123.68 167.224 1892.78 293.384C1853.8 314.674 1817.19 323.153 1780.94 322.96C1615.72 322.074 1465.92 137.061 1221.09 117.702C1137.87 111.026 1054.14 110.846 972.023 113.371C827.36 117.772 687.423 126.193 563.637 131.469C387.432 138.941 243.617 135.616 162.642 19.8018C11.8367 -196.266 94.9398 -497.348 257.067 -764.852C416.552 -1027.99 651.155 -1258.75 803.65 -1344.16C1113.61 -1517.75 1632.4 -1209.9 1806.13 -899.698C1892.99 -744.613 2033.64 -499.169 2090.92 -263.104L2090.83 -263.099Z" stroke="url(#paint30_linear_289_1024)" stroke-width="0.43" stroke-miterlimit="10" stroke-linecap="round"/>
<path d="M2090.05 -261.269C2144.9 -41.2747 2125.6 171.549 1891.25 298.117C1851.8 319.447 1814.82 327.591 1778.33 326.811C1612.31 323.306 1463.63 131.591 1216.93 112.601C1133.09 106.041 1048.82 106.397 966.066 109.725C820.377 115.511 679.384 126.145 554.714 133.538C376.404 144.081 230.977 143.505 149.242 27.2163C-2.97042 -189.596 83.5214 -493.385 249.02 -763.229C411.955 -1028.89 650.166 -1261.8 801.599 -1346.61C1109.3 -1518.94 1629.5 -1205.35 1801.98 -897.377C1888.22 -743.389 2031.07 -497.818 2090.04 -261.216L2090.05 -261.269Z" stroke="url(#paint31_linear_289_1024)" stroke-width="0.43" stroke-miterlimit="10" stroke-linecap="round"/>
<path d="M2089.31 -259.458C2145.86 -38.3466 2127.53 175.875 1889.71 302.85C1849.77 324.185 1812.46 331.976 1775.75 330.643C1608.87 324.557 1461.4 126.083 1212.83 107.462C1128.41 101.052 1043.52 101.929 960.231 106.057C813.518 113.228 671.454 126.128 545.914 135.584C365.444 149.183 218.476 151.318 135.983 34.6422C-17.6354 -182.913 72.2108 -489.393 241.13 -761.647C407.516 -1029.83 649.316 -1264.93 799.721 -1349.16C1105.19 -1520.24 1626.76 -1200.85 1797.97 -895.132C1883.58 -742.275 2028.67 -496.563 2089.31 -259.458Z" stroke="url(#paint32_linear_289_1024)" stroke-width="0.43" stroke-miterlimit="10" stroke-linecap="round"/>
<path d="M2088.54 -257.628C2146.88 -35.4036 2129.46 180.201 1888.2 307.618C1847.73 328.977 1810.13 336.429 1773.15 334.528C1605.47 325.876 1459.15 120.629 1208.72 102.375C1123.69 96.0821 1038.25 97.4953 954.36 102.407C806.622 110.963 663.468 126.095 537.077 137.649C354.502 154.32 205.957 159.184 122.669 42.0527C-32.3752 -176.281 61.422 -485.108 233.184 -760.081C403.564 -1030.45 648.429 -1268.04 797.772 -1351.68C1100.98 -1521.49 1623.96 -1196.35 1793.91 -892.902C1878.89 -741.177 2026.18 -495.303 2088.55 -257.681L2088.54 -257.628Z" stroke="url(#paint33_linear_289_1024)" stroke-width="0.43" stroke-miterlimit="10" stroke-linecap="round"/>
<path d="M2087.76 -255.798C2147.84 -32.4762 2131.38 184.526 1886.7 312.331C1845.75 333.73 1807.79 340.847 1770.61 338.34C1602.1 327.088 1456.96 115.101 1204.68 97.2506C1119.09 91.0886 1033.01 93.042 948.525 98.738C799.782 108.713 655.571 126.058 528.242 139.714C343.528 159.475 193.421 167.015 109.323 49.4819C-47.1628 -169.576 50.0232 -481.112 225.191 -758.442C399.021 -1031.33 647.441 -1271.09 795.756 -1354.15C1096.74 -1522.72 1621.06 -1191.8 1789.77 -890.581C1874.11 -739.987 2023.64 -493.972 2087.71 -255.813L2087.76 -255.798Z" stroke="url(#paint34_linear_289_1024)" stroke-width="0.43" stroke-miterlimit="10" stroke-linecap="round"/>
<path d="M2086.99 -253.967C2148.84 -29.5667 2133.28 188.871 1885.16 317.065C1843.73 338.47 1805.4 345.252 1768.05 342.207C1598.73 328.389 1454.75 109.629 1200.58 92.1652C1114.4 86.1539 1027.74 88.609 942.656 95.0892C792.888 106.449 647.606 126.06 519.408 141.78C332.573 164.665 180.904 174.882 96.0302 56.9275C-61.8618 -162.874 38.6937 -477.153 217.267 -756.841C394.528 -1032.28 646.575 -1274.16 793.863 -1356.65C1092.58 -1523.95 1618.34 -1187.26 1785.78 -888.301C1869.5 -738.805 2021.22 -492.662 2087.02 -253.986L2086.99 -253.967Z" stroke="url(#paint35_linear_289_1024)" stroke-width="0.43" stroke-miterlimit="10" stroke-linecap="round"/>
<path d="M2086.24 -252.155C2149.84 -26.6576 2135.21 193.197 1883.63 321.798C1841.66 343.228 1803.06 349.671 1765.43 346.059C1595.29 329.641 1452.48 104.14 1196.45 87.0452C1109.66 81.1503 1022.41 84.1605 936.786 91.4401C785.993 104.184 639.659 126.097 510.572 143.846C321.651 169.836 168.333 182.733 82.7169 64.3384C-76.601 -156.241 27.3283 -473.175 209.322 -755.274C390.033 -1033.23 645.67 -1277.3 791.895 -1359.19C1088.39 -1525.25 1615.49 -1182.78 1781.68 -886.052C1864.77 -737.687 2018.73 -491.402 2086.19 -252.17L2086.24 -252.155Z" stroke="url(#paint36_linear_289_1024)" stroke-width="0.43" stroke-miterlimit="10" stroke-linecap="round"/>
<path d="M2085.47 -250.325C2150.84 -23.7494 2137.13 197.522 1882.13 326.512C1839.69 347.981 1800.72 354.089 1762.89 349.871C1591.94 330.887 1450.3 98.6469 1192.39 81.886C1105.01 76.1418 1017.18 79.6537 930.966 87.7175C779.148 101.846 631.778 126.006 501.806 145.872C310.783 175.021 155.884 190.56 69.473 71.7103C-91.2516 -149.613 16.0665 -469.256 201.431 -753.693C385.593 -1034.17 644.838 -1280.39 790.002 -1361.69C1084.27 -1526.5 1612.75 -1178.27 1777.69 -883.773C1860.15 -736.54 2016.33 -490.148 2085.5 -250.344L2085.47 -250.325Z" stroke="url(#paint37_linear_289_1024)" stroke-width="0.43" stroke-miterlimit="10" stroke-linecap="round"/>
<path d="M2084.7 -248.495C2151.84 -20.8408 2139.08 201.882 1880.59 331.245C1837.67 352.719 1798.36 358.474 1760.27 353.722C1588.49 332.191 1448.04 93.158 1188.28 76.7996C1100.32 71.1526 1011.88 75.2389 925.063 84.0869C772.22 99.6004 623.798 126.061 492.938 147.956C299.813 180.264 143.333 198.445 56.1464 79.1741C-105.985 -142.893 4.68773 -465.225 193.473 -752.074C381.12 -1035.09 643.92 -1283.48 788.055 -1364.21C1080.06 -1527.75 1609.98 -1173.75 1773.65 -881.509C1855.49 -735.373 2013.89 -488.873 2084.76 -248.533L2084.7 -248.495Z" stroke="url(#paint38_linear_289_1024)" stroke-width="0.43" stroke-miterlimit="10" stroke-linecap="round"/>
<path d="M2083.95 -246.684C2152.84 -17.9323 2141.01 206.207 1879.08 336.012C1835.64 357.545 1796 362.946 1757.71 357.588C1585.12 333.491 1445.83 87.6842 1184.17 71.7134C1095.62 66.217 1006.6 70.8051 919.213 80.4716C765.345 97.3698 615.871 126.131 484.122 150.055C288.896 185.523 130.816 206.311 42.8532 86.6189C-120.704 -136.226 -6.6768 -461.248 185.513 -750.454C376.611 -1035.99 643.019 -1286.54 786.093 -1366.67C1075.87 -1528.96 1607.13 -1169.18 1769.56 -879.172C1850.77 -734.168 2011.4 -487.526 2083.97 -246.65L2083.95 -246.684Z" stroke="url(#paint39_linear_289_1024)" stroke-width="0.43" stroke-miterlimit="10" stroke-linecap="round"/>
<path d="M2083.18 -244.853C2153.84 -15.0229 2142.92 210.587 1877.54 340.746C1833.62 362.284 1793.66 367.366 1755.1 361.44C1581.64 334.762 1443.53 82.2154 1180.04 66.5937C1090.91 61.248 1001.3 66.3913 913.324 76.7885C758.431 95.0714 607.94 126.114 475.267 152.087C277.974 190.694 118.245 214.163 29.5212 93.9958C-135.443 -129.593 -18.0266 -457.323 177.569 -748.887C372.098 -1036.97 642.133 -1289.64 784.145 -1369.18C1071.66 -1530.2 1604.34 -1164.69 1765.49 -876.942C1846.07 -733.069 2008.95 -486.285 2083.18 -244.853Z" stroke="url(#paint40_linear_289_1024)" stroke-width="0.43" stroke-miterlimit="10" stroke-linecap="round"/>
<path d="M2082.39 -243.056C2154.86 -12.0793 2144.85 214.913 1876.04 345.461C1831.64 367.039 1791.3 371.751 1752.55 365.253C1578.29 336.009 1441.34 76.689 1175.98 61.4356C1086.27 56.1871 996.072 61.8856 907.469 73.0862C751.552 92.7538 600.028 126.132 466.413 154.119C267.038 195.918 105.69 221.961 16.2089 101.407C-150.161 -122.925 -29.391 -453.345 169.625 -747.32C367.605 -1037.92 641.229 -1292.78 782.213 -1371.74C1067.5 -1531.52 1601.55 -1160.19 1761.43 -874.711C1841.38 -731.97 2006.49 -485.045 2082.42 -243.076L2082.39 -243.056Z" stroke="url(#paint41_linear_289_1024)" stroke-width="0.43" stroke-miterlimit="10" stroke-linecap="round"/>
<path d="M2081.61 -241.226C2155.89 -9.18951 2146.79 219.273 1874.51 350.194C1829.58 371.797 1788.92 376.189 1749.94 369.104C1574.84 337.314 1439.07 71.2005 1171.88 56.3497C1081.57 51.2519 990.764 57.4712 901.62 69.4711C744.678 90.5235 592.136 126.183 457.598 156.218C256.174 201.192 93.192 229.862 2.91606 108.852C-164.861 -116.224 -40.7208 -449.387 161.666 -745.7C363.096 -1038.82 640.295 -1295.82 780.251 -1374.2C1063.28 -1532.72 1598.74 -1155.65 1757.37 -872.394C1836.7 -730.749 2004.04 -483.716 2081.66 -241.211L2081.61 -241.226Z" stroke="url(#paint42_linear_289_1024)" stroke-width="0.43" stroke-miterlimit="10" stroke-linecap="round"/>
<path d="M2080.87 -239.416C2156.89 -6.28184 2148.69 223.617 1872.97 354.926C1827.57 376.568 1786.58 380.607 1747.36 372.935C1571.41 338.598 1436.84 65.6915 1167.75 51.2283C1076.83 46.2469 985.47 53.0022 895.729 65.7863C737.763 88.2234 584.189 126.218 448.743 158.248C245.237 206.415 80.635 237.658 -10.4512 116.247C-179.654 -109.607 -52.1402 -445.425 153.687 -744.116C358.567 -1039.75 639.355 -1298.94 778.248 -1376.73C1059.05 -1534 1595.85 -1151.15 1753.24 -870.126C1831.94 -729.614 2001.55 -482.458 2080.83 -239.396L2080.87 -239.416Z" stroke="url(#paint43_linear_289_1024)" stroke-width="0.43" stroke-miterlimit="10" stroke-linecap="round"/>
<path d="M2080.09 -237.584C2157.92 -3.39146 2150.63 227.978 1871.44 359.66C1825.55 381.308 1784.21 385.046 1744.75 376.787C1567.99 339.884 1434.6 60.2379 1163.62 46.1087C1072.11 41.2779 980.144 48.5542 889.807 62.1226C730.835 85.9786 576.244 126.254 439.875 160.333C234.34 211.709 68.0845 245.544 -23.7777 123.711C-194.387 -102.886 -63.4847 -441.413 145.694 -742.476C354.025 -1040.63 638.421 -1301.98 776.287 -1379.19C1054.83 -1535.19 1593.04 -1146.61 1749.19 -867.808C1827.25 -728.427 1999.1 -481.129 2080.04 -237.512L2080.09 -237.584Z" stroke="url(#paint44_linear_289_1024)" stroke-width="0.43" stroke-miterlimit="10" stroke-linecap="round"/>
<path d="M2079.32 -235.754C2158.92 -0.482663 2152.58 232.337 1869.96 364.409C1823.54 386.081 1781.87 389.465 1742.24 380.669C1564.65 341.219 1432.44 54.7794 1159.6 41.0186C1067.54 36.3193 974.958 44.1165 884.044 58.5033C724.047 83.7441 568.457 126.336 431.146 162.429C223.563 216.978 55.6395 253.46 -36.9836 131.152C-209 -96.1889 -74.762 -437.439 137.856 -740.879C349.638 -1041.55 637.623 -1305.09 774.427 -1381.71C1050.74 -1536.46 1590.36 -1142.08 1745.23 -865.548C1822.66 -727.298 1996.78 -479.878 2079.39 -235.705L2079.32 -235.754Z" stroke="url(#paint45_linear_289_1024)" stroke-width="0.43" stroke-miterlimit="10" stroke-linecap="round"/>
<path d="M2078.54 -233.923C2159.95 2.40754 2154.47 236.683 1868.42 369.142C1821.53 390.854 1779.53 393.884 1739.63 384.52C1561.19 342.524 1430.18 49.2914 1155.46 35.9524C1062.78 31.3695 969.616 39.7219 878.141 54.8737C717.119 81.4991 560.53 126.407 422.277 164.514C212.684 222.306 43.0689 261.311 -50.3302 138.583C-223.772 -89.5365 -86.1265 -433.461 129.897 -739.259C345.11 -1042.49 636.723 -1308.14 772.464 -1384.17C1046.55 -1537.67 1587.51 -1137.52 1741.14 -863.211C1817.95 -726.058 1994.3 -478.53 2078.6 -233.82L2078.54 -233.923Z" stroke="url(#paint46_linear_289_1024)" stroke-width="0.43" stroke-miterlimit="10" stroke-linecap="round"/>
<path d="M2077.8 -232.112C2160.99 5.29649 2156.46 241.023 1866.92 373.856C1819.54 395.573 1777.19 398.303 1737.08 388.333C1557.8 343.789 1427.98 43.7638 1151.4 30.7931C1058.13 26.3608 964.392 35.215 872.287 51.1702C710.24 79.1803 552.653 126.404 413.423 166.544C201.802 227.544 30.5329 269.143 -63.6422 145.993C-238.525 -82.8509 -97.4905 -429.485 121.919 -737.674C340.583 -1043.42 635.785 -1311.27 770.498 -1386.71C1042.32 -1538.95 1584.7 -1133.06 1737.06 -861.016C1813.24 -724.995 1991.86 -477.344 2077.8 -232.112Z" stroke="url(#paint47_linear_289_1024)" stroke-width="0.43" stroke-miterlimit="10" stroke-linecap="round"/>
<path d="M2077.03 -230.283C2162.04 8.21985 2158.37 245.401 1865.39 378.589C1817.5 400.364 1774.81 402.74 1734.47 392.183C1554.35 345.093 1425.72 38.2745 1147.27 25.6721C1053.4 21.3563 959.065 30.7656 866.417 47.5201C703.346 76.915 544.761 126.454 404.588 168.609C190.938 232.817 17.9969 276.974 -76.9542 153.403C-253.244 -76.1846 -108.821 -425.527 113.975 -736.108C336.089 -1044.37 634.899 -1314.37 768.551 -1389.23C1038.15 -1540.22 1581.89 -1128.51 1732.98 -858.733C1808.53 -723.843 1989.42 -476.07 2076.99 -230.263L2077.03 -230.283Z" stroke="url(#paint48_linear_289_1024)" stroke-width="0.43" stroke-miterlimit="10" stroke-linecap="round"/>
<path d="M2076.25 -228.452C2163.04 11.1288 2160.28 249.781 1863.85 383.322C1815.47 405.103 1772.45 407.125 1731.89 396.015C1550.93 346.378 1423.49 32.7669 1143.17 20.5328C1048.75 16.3484 953.806 26.2787 860.562 43.8174C696.466 74.597 536.901 126.486 395.767 170.621C180.107 238.072 5.49308 284.787 -90.2532 160.76C-267.95 -69.5708 -120.191 -421.637 106.064 -734.561C331.629 -1045.34 634.028 -1317.54 766.617 -1391.79C1033.95 -1541.52 1579.11 -1124.07 1728.95 -856.522C1803.88 -722.73 1987.01 -474.902 2076.27 -228.505L2076.25 -228.452Z" stroke="url(#paint49_linear_289_1024)" stroke-width="0.43" stroke-miterlimit="10" stroke-linecap="round"/>
<path d="M2075.48 -226.622C2164.11 13.9989 2162.23 254.14 1862.32 388.055C1813.46 409.876 1770.08 411.563 1729.27 399.866C1547.47 347.682 1421.19 27.2971 1139.01 15.4313C1043.97 11.3633 948.446 21.8488 854.64 40.1525C689.52 72.3168 528.976 126.556 386.881 172.671C169.211 243.364 -7.12929 292.622 -103.617 168.155C-282.739 -62.9537 -131.573 -417.694 98.0337 -732.991C327.049 -1046.29 633.022 -1320.62 764.618 -1394.32C1029.73 -1542.8 1576.23 -1119.58 1724.82 -854.254C1799.12 -721.593 1984.52 -473.643 2075.44 -226.69L2075.48 -226.622Z" stroke="url(#paint50_linear_289_1024)" stroke-width="0.43" stroke-miterlimit="10" stroke-linecap="round"/>
<path d="M2074.74 -224.81C2165.14 16.8896 2164.16 258.467 1860.8 392.823C1811.42 414.669 1767.72 416.037 1726.71 403.734C1544.07 349.003 1419 21.859 1134.96 10.3615C1039.33 6.4442 943.245 17.4656 848.79 36.5385C682.644 70.0875 521.102 126.643 378.084 174.806C158.405 248.742 -19.6083 300.558 -116.907 175.689C-297.435 -56.1634 -142.914 -413.593 90.1127 -731.301C322.559 -1047.15 632.141 -1323.64 762.675 -1396.75C1025.52 -1543.96 1573.46 -1114.96 1720.78 -851.901C1794.45 -720.372 1982.13 -472.299 2074.7 -224.79L2074.74 -224.81Z" stroke="url(#paint51_linear_289_1024)" stroke-width="0.43" stroke-miterlimit="10" stroke-linecap="round"/>
<path d="M2073.96 -222.979C2166.17 19.7795 2166.07 262.846 1859.3 397.538C1809.45 419.423 1765.36 420.422 1724.13 407.566C1540.62 350.308 1416.77 16.3515 1130.86 5.22233C1034.68 1.43649 937.952 12.9981 842.954 32.8702C675.784 67.804 513.263 126.709 369.283 176.852C147.628 254.011 -32.092 308.405 -130.185 183.081C-312.121 -49.5153 -154.23 -409.688 82.1873 -729.7C318.084 -1048.07 631.274 -1326.71 760.78 -1399.24C1021.4 -1545.21 1570.71 -1110.45 1716.79 -849.622C1789.82 -719.224 1979.78 -471.028 2074.01 -222.964L2073.96 -222.979Z" stroke="url(#paint52_linear_289_1024)" stroke-width="0.43" stroke-miterlimit="10" stroke-linecap="round"/>
<path d="M2073.19 -221.148C2167.21 22.6693 2168.27 267.828 1857.76 402.271C1807.44 424.284 1763.02 424.841 1721.55 411.398C1537.2 351.593 1414.54 10.8439 1126.77 0.0831196C1029.97 -3.58635 932.693 8.51125 837.099 29.1676C668.904 65.486 505.438 126.722 360.462 178.864C136.818 259.3 -44.6134 316.184 -143.483 190.438C-326.844 -42.9359 -165.58 -405.764 74.2579 -728.187C313.64 -1049.09 630.384 -1329.91 758.828 -1401.84C1017.19 -1546.54 1567.88 -1106.03 1712.71 -847.426C1785.13 -718.125 1977.34 -469.841 2073.2 -221.202L2073.19 -221.148Z" stroke="url(#paint53_linear_289_1024)" stroke-width="0.43" stroke-miterlimit="10" stroke-linecap="round"/>
<path d="M2072.41 -219.318C2168.29 25.5733 2170.18 272.118 1856.23 407.004C1805.42 429.021 1760.64 429.278 1718.94 415.249C1533.74 352.897 1412.28 5.35456 1122.61 -5.01871C1025.22 -8.53751 927.332 4.08097 831.142 25.5215C661.941 63.259 497.477 126.811 351.505 180.952C125.904 264.646 -57.2528 324.073 -156.898 197.906C-341.666 -36.212 -177.013 -401.749 66.2108 -726.564C309.043 -1049.99 629.396 -1332.96 756.778 -1404.3C1012.91 -1547.75 1565 -1101.44 1708.57 -845.105C1780.35 -716.936 1974.83 -468.529 2072.36 -219.333L2072.41 -219.318Z" stroke="url(#paint54_linear_289_1024)" stroke-width="0.43" stroke-miterlimit="10" stroke-linecap="round"/>
<path d="M2071.67 -217.508C2169.33 28.4623 2172.07 276.463 1854.7 411.736C1803.41 433.794 1758.27 433.716 1716.38 419.114C1530.3 354.235 1410.07 -0.119586 1118.55 -10.0902C1020.56 -13.4927 922.113 -0.338203 825.346 21.9209C655.121 61.043 489.711 126.926 342.744 183.066C115.168 269.983 -69.75 331.973 -170.137 205.365C-356.312 -29.4962 -188.323 -397.757 58.3252 -724.895C304.608 -1050.84 628.55 -1336 754.904 -1406.76C1008.78 -1548.95 1562.25 -1096.88 1704.54 -842.807C1775.69 -715.769 1972.45 -467.24 2071.64 -217.489L2071.67 -217.508Z" stroke="url(#paint55_linear_289_1024)" stroke-width="0.43" stroke-miterlimit="10" stroke-linecap="round"/>
<path d="M2070.88 -215.711C2170.36 31.3529 2173.98 280.755 1853.2 416.452C1801.38 438.533 1755.91 438.102 1713.83 422.928C1526.92 355.502 1407.87 -5.6457 1114.49 -15.248C1015.94 -18.519 916.853 -4.82435 819.525 18.1997C648.275 58.7066 481.921 126.921 333.958 185.06C104.391 275.253 -82.2186 339.767 -183.401 212.704C-370.982 -22.901 -199.605 -393.87 50.4297 -723.4C300.163 -1051.86 627.714 -1339.18 753.006 -1409.35C1004.65 -1550.28 1559.5 -1092.46 1700.55 -840.614C1771.08 -714.674 1970.11 -466.11 2070.94 -215.749L2070.88 -215.711Z" stroke="url(#paint56_linear_289_1024)" stroke-width="0.43" stroke-miterlimit="10" stroke-linecap="round"/>
<path d="M2070.1 -213.88C2171.43 34.2239 2175.91 285.081 1851.68 421.22C1799.37 443.307 1753.56 442.662 1711.24 426.814C1523.32 357.201 1405.63 -11.0995 1110.39 -20.3335C1011.24 -23.4538 911.58 -9.25737 813.622 14.5701C641.347 56.4617 474.033 127.06 325.108 187.179C93.5855 280.63 -94.7694 347.653 -196.709 220.203C-385.716 -16.1798 -210.965 -389.804 42.4562 -721.726C295.621 -1052.74 626.78 -1342.21 751.01 -1411.79C1000.43 -1551.48 1556.64 -1087.84 1696.42 -838.258C1766.33 -713.449 1967.62 -464.762 2070.09 -213.826L2070.1 -213.88Z" stroke="url(#paint57_linear_289_1024)" stroke-width="0.43" stroke-miterlimit="10" stroke-linecap="round"/>
<path d="M2069.33 -212.049C2172.92 36.8982 2177.8 289.426 1850.15 425.953C1797.37 448.079 1751.16 447.066 1708.66 430.646C1519.88 358.451 1403.42 -16.5731 1106.26 -25.4539C1006.5 -28.4578 906.253 -13.7061 807.753 10.9207C634.453 54.1969 466.194 127.126 316.273 189.244C82.8135 285.987 -107.287 355.519 -210.021 227.614C-400.435 -9.51302 -222.314 -385.88 34.531 -720.126C291.146 -1053.66 625.913 -1345.29 749.115 -1414.29C996.273 -1552.71 1553.9 -1083.33 1692.44 -835.979C1761.7 -712.301 1965.74 -463.707 2069.4 -212L2069.33 -212.049Z" stroke="url(#paint58_linear_289_1024)" stroke-width="0.43" stroke-miterlimit="10" stroke-linecap="round"/>
<path d="M2068.58 -210.239C2173.92 39.8066 2179.71 293.717 1848.64 430.666C1795.34 452.818 1748.82 451.485 1706.08 434.477C1516.48 359.683 1401.15 -22.0622 1102.18 -30.5596C1001.87 -33.432 901.014 -18.1595 801.917 7.2515C627.593 51.9125 458.389 127.173 307.473 191.29C72.0909 291.271 -119.77 363.366 -223.334 235.024C-415.154 -2.84652 -233.679 -381.904 26.5867 -718.56C286.653 -1054.61 624.974 -1348.41 747.149 -1416.83C992.08 -1554.01 1551.05 -1078.86 1688.34 -833.73C1756.97 -711.184 1963.21 -462.428 2068.6 -210.204L2068.58 -210.239Z" stroke="url(#paint59_linear_289_1024)" stroke-width="0.43" stroke-miterlimit="10" stroke-linecap="round"/>
<path d="M2067.81 -208.409C2174.89 42.7341 2181.64 298.042 1847.11 435.399C1793.31 457.556 1746.46 455.869 1703.5 438.309C1513.07 360.914 1398.92 -27.5705 1098.09 -35.6995C997.17 -38.4556 895.721 -22.6279 796.028 3.56728C620.679 49.6129 450.549 127.238 298.618 193.32C61.2804 296.56 -132.36 371.182 -236.646 242.434C-429.893 3.7857 -245.01 -377.946 18.6081 -716.975C282.124 -1055.54 624.055 -1351.5 745.167 -1419.33C987.837 -1555.24 1548.24 -1074.31 1684.26 -831.447C1752.28 -709.999 1960.69 -461.15 2067.83 -208.374L2067.81 -208.409Z" stroke="url(#paint60_linear_289_1024)" stroke-width="0.43" stroke-miterlimit="10" stroke-linecap="round"/>
<path d="M2067.03 -206.578C2175.83 45.6284 2183.51 302.353 1845.57 440.133C1791.25 462.314 1744.09 460.308 1700.89 442.161C1509.6 362.185 1396.66 -33.0585 1093.96 -40.8192C992.451 -43.4246 890.428 -27.0952 790.159 -0.0814651C613.785 47.3489 442.71 127.305 289.749 195.405C50.4741 301.937 -144.911 379.068 -249.993 249.864C-444.68 10.4916 -256.409 -373.948 10.6486 -715.354C277.616 -1056.44 623.135 -1354.59 743.219 -1421.84C983.662 -1556.5 1545.45 -1069.82 1680.22 -829.183C1747.6 -708.865 1958.25 -459.875 2067.05 -206.543L2067.03 -206.578Z" stroke="url(#paint61_linear_289_1024)" stroke-width="0.43" stroke-miterlimit="10" stroke-linecap="round"/>
<path d="M2066.26 -204.747C2176.83 48.5373 2185.44 306.679 1844.04 444.866C1789.24 467.087 1741.73 464.692 1698.31 445.993C1506.19 363.417 1394.43 -38.5662 1089.83 -45.9394C987.733 -48.3941 885.121 -31.5095 784.271 -3.7651C606.872 45.05 434.948 127.509 280.896 197.436C39.8184 307.5 -157.466 386.865 -263.324 257.241C-459.417 17.1244 -267.81 -370.039 2.68637 -713.822C273.085 -1057.46 622.231 -1357.73 741.254 -1424.39C979.435 -1557.78 1542.6 -1065.34 1676.1 -826.968C1742.85 -707.782 1955.69 -458.665 2066.22 -204.816L2066.26 -204.747Z" stroke="url(#paint62_linear_289_1024)" stroke-width="0.43" stroke-miterlimit="10" stroke-linecap="round"/>
<path d="M-276.598 264.72C-474.099 23.8598 -279.103 -366.013 -5.25402 -712.168C268.595 -1058.32 621.331 -1360.78 739.291 -1426.85C975.245 -1558.99 1539.79 -1060.79 1672.05 -824.65C1738.16 -706.596 1953.21 -457.318 2065.47 -202.951C2177.73 51.4157 2187.35 310.97 1842.56 449.614C1542.79 570.118 1461.58 -42.4342 1085.78 -51.0105C802.482 -57.4765 515.213 86.4743 272.133 199.551C29.0336 312.593 -169.911 394.781 -276.545 264.735L-276.598 264.72Z" stroke="url(#paint63_linear_289_1024)" stroke-width="0.43" stroke-miterlimit="10" stroke-linecap="round"/>
<defs>
<linearGradient id="paint0_linear_289_1024" x1="1729.42" y1="279.834" x2="862.029" y2="-1268.93" gradientUnits="userSpaceOnUse">
<stop stop-color="white"/>
<stop offset="1" stop-color="#6D7EFF"/>
</linearGradient>
<linearGradient id="paint1_linear_289_1024" x1="1721.79" y1="286.588" x2="851.824" y2="-1266.77" gradientUnits="userSpaceOnUse">
<stop stop-color="white"/>
<stop offset="1" stop-color="#6D7EFF"/>
</linearGradient>
<linearGradient id="paint2_linear_289_1024" x1="1714.21" y1="293.474" x2="841.539" y2="-1264.71" gradientUnits="userSpaceOnUse">
<stop stop-color="white"/>
<stop offset="1" stop-color="#6D7EFF"/>
</linearGradient>
<linearGradient id="paint3_linear_289_1024" x1="1706.75" y1="300.436" x2="831.358" y2="-1262.61" gradientUnits="userSpaceOnUse">
<stop stop-color="white"/>
<stop offset="1" stop-color="#6D7EFF"/>
</linearGradient>
<linearGradient id="paint4_linear_289_1024" x1="1699.3" y1="307.53" x2="821.181" y2="-1260.38" gradientUnits="userSpaceOnUse">
<stop stop-color="white"/>
<stop offset="1" stop-color="#6D7EFF"/>
</linearGradient>
<linearGradient id="paint5_linear_289_1024" x1="1691.88" y1="314.691" x2="810.943" y2="-1258.25" gradientUnits="userSpaceOnUse">
<stop stop-color="white"/>
<stop offset="1" stop-color="#6D7EFF"/>
</linearGradient>
<linearGradient id="paint6_linear_289_1024" x1="1684.51" y1="321.922" x2="800.679" y2="-1256.19" gradientUnits="userSpaceOnUse">
<stop stop-color="white"/>
<stop offset="1" stop-color="#6D7EFF"/>
</linearGradient>
<linearGradient id="paint7_linear_289_1024" x1="1677.22" y1="329.203" x2="790.525" y2="-1254.02" gradientUnits="userSpaceOnUse">
<stop stop-color="white"/>
<stop offset="1" stop-color="#6D7EFF"/>
</linearGradient>
<linearGradient id="paint8_linear_289_1024" x1="1669.82" y1="336.62" x2="780.155" y2="-1251.9" gradientUnits="userSpaceOnUse">
<stop stop-color="white"/>
<stop offset="1" stop-color="#6D7EFF"/>
</linearGradient>
<linearGradient id="paint9_linear_289_1024" x1="1662.57" y1="344.024" x2="769.942" y2="-1249.79" gradientUnits="userSpaceOnUse">
<stop stop-color="white"/>
<stop offset="1" stop-color="#6D7EFF"/>
</linearGradient>
<linearGradient id="paint10_linear_289_1024" x1="1655.32" y1="351.53" x2="759.75" y2="-1247.55" gradientUnits="userSpaceOnUse">
<stop stop-color="white"/>
<stop offset="1" stop-color="#6D7EFF"/>
</linearGradient>
<linearGradient id="paint11_linear_289_1024" x1="1648.12" y1="359.025" x2="749.515" y2="-1245.46" gradientUnits="userSpaceOnUse">
<stop stop-color="white"/>
<stop offset="1" stop-color="#6D7EFF"/>
</linearGradient>
<linearGradient id="paint12_linear_289_1024" x1="1640.9" y1="366.578" x2="739.224" y2="-1243.39" gradientUnits="userSpaceOnUse">
<stop stop-color="white"/>
<stop offset="1" stop-color="#6D7EFF"/>
</linearGradient>
<linearGradient id="paint13_linear_289_1024" x1="1633.72" y1="374.156" x2="729.047" y2="-1241.16" gradientUnits="userSpaceOnUse">
<stop stop-color="white"/>
<stop offset="1" stop-color="#6D7EFF"/>
</linearGradient>
<linearGradient id="paint14_linear_289_1024" x1="1626.56" y1="381.784" x2="718.791" y2="-1239.07" gradientUnits="userSpaceOnUse">
<stop stop-color="white"/>
<stop offset="1" stop-color="#6D7EFF"/>
</linearGradient>
<linearGradient id="paint15_linear_289_1024" x1="1619.37" y1="389.438" x2="708.498" y2="-1236.95" gradientUnits="userSpaceOnUse">
<stop stop-color="white"/>
<stop offset="1" stop-color="#6D7EFF"/>
</linearGradient>
<linearGradient id="paint16_linear_289_1024" x1="1612.24" y1="397.088" x2="698.296" y2="-1234.79" gradientUnits="userSpaceOnUse">
<stop stop-color="white"/>
<stop offset="1" stop-color="#6D7EFF"/>
</linearGradient>
<linearGradient id="paint17_linear_289_1024" x1="1605.13" y1="404.804" x2="688.095" y2="-1232.59" gradientUnits="userSpaceOnUse">
<stop stop-color="white"/>
<stop offset="1" stop-color="#6D7EFF"/>
</linearGradient>
<linearGradient id="paint18_linear_289_1024" x1="1597.96" y1="412.537" x2="677.765" y2="-1230.5" gradientUnits="userSpaceOnUse">
<stop stop-color="white"/>
<stop offset="1" stop-color="#6D7EFF"/>
</linearGradient>
<linearGradient id="paint19_linear_289_1024" x1="1590.85" y1="420.256" x2="667.524" y2="-1228.37" gradientUnits="userSpaceOnUse">
<stop stop-color="white"/>
<stop offset="1" stop-color="#6D7EFF"/>
</linearGradient>
<linearGradient id="paint20_linear_289_1024" x1="1583.76" y1="427.98" x2="657.3" y2="-1226.25" gradientUnits="userSpaceOnUse">
<stop stop-color="white"/>
<stop offset="1" stop-color="#6D7EFF"/>
</linearGradient>
<linearGradient id="paint21_linear_289_1024" x1="1576.62" y1="435.815" x2="647.006" y2="-1224.04" gradientUnits="userSpaceOnUse">
<stop stop-color="white"/>
<stop offset="1" stop-color="#6D7EFF"/>
</linearGradient>
<linearGradient id="paint22_linear_289_1024" x1="1569.55" y1="443.569" x2="636.76" y2="-1221.95" gradientUnits="userSpaceOnUse">
<stop stop-color="white"/>
<stop offset="1" stop-color="#6D7EFF"/>
</linearGradient>
<linearGradient id="paint23_linear_289_1024" x1="1562.48" y1="451.336" x2="626.553" y2="-1219.79" gradientUnits="userSpaceOnUse">
<stop stop-color="white"/>
<stop offset="1" stop-color="#6D7EFF"/>
</linearGradient>
<linearGradient id="paint24_linear_289_1024" x1="1555.42" y1="459.113" x2="616.327" y2="-1217.67" gradientUnits="userSpaceOnUse">
<stop stop-color="white"/>
<stop offset="1" stop-color="#6D7EFF"/>
</linearGradient>
<linearGradient id="paint25_linear_289_1024" x1="1548.3" y1="466.943" x2="606.05" y2="-1215.47" gradientUnits="userSpaceOnUse">
<stop stop-color="white"/>
<stop offset="1" stop-color="#6D7EFF"/>
</linearGradient>
<linearGradient id="paint26_linear_289_1024" x1="1541.27" y1="474.731" x2="595.841" y2="-1213.36" gradientUnits="userSpaceOnUse">
<stop stop-color="white"/>
<stop offset="1" stop-color="#6D7EFF"/>
</linearGradient>
<linearGradient id="paint27_linear_289_1024" x1="1534.15" y1="482.658" x2="585.51" y2="-1211.18" gradientUnits="userSpaceOnUse">
<stop stop-color="white"/>
<stop offset="1" stop-color="#6D7EFF"/>
</linearGradient>
<linearGradient id="paint28_linear_289_1024" x1="1527.09" y1="490.465" x2="575.245" y2="-1209.08" gradientUnits="userSpaceOnUse">
<stop stop-color="white"/>
<stop offset="1" stop-color="#6D7EFF"/>
</linearGradient>
<linearGradient id="paint29_linear_289_1024" x1="1520.01" y1="498.292" x2="565.002" y2="-1206.9" gradientUnits="userSpaceOnUse">
<stop stop-color="white"/>
<stop offset="1" stop-color="#6D7EFF"/>
</linearGradient>
<linearGradient id="paint30_linear_289_1024" x1="1513.04" y1="506.1" x2="554.833" y2="-1204.8" gradientUnits="userSpaceOnUse">
<stop stop-color="white"/>
<stop offset="1" stop-color="#6D7EFF"/>
</linearGradient>
<linearGradient id="paint31_linear_289_1024" x1="1505.94" y1="513.994" x2="544.525" y2="-1202.64" gradientUnits="userSpaceOnUse">
<stop stop-color="white"/>
<stop offset="1" stop-color="#6D7EFF"/>
</linearGradient>
<linearGradient id="paint32_linear_289_1024" x1="1498.99" y1="521.817" x2="534.365" y2="-1200.55" gradientUnits="userSpaceOnUse">
<stop stop-color="white"/>
<stop offset="1" stop-color="#6D7EFF"/>
</linearGradient>
<linearGradient id="paint33_linear_289_1024" x1="1492.06" y1="529.686" x2="524.2" y2="-1198.46" gradientUnits="userSpaceOnUse">
<stop stop-color="white"/>
<stop offset="1" stop-color="#6D7EFF"/>
</linearGradient>
<linearGradient id="paint34_linear_289_1024" x1="1485.09" y1="537.551" x2="514.002" y2="-1196.35" gradientUnits="userSpaceOnUse">
<stop stop-color="white"/>
<stop offset="1" stop-color="#6D7EFF"/>
</linearGradient>
<linearGradient id="paint35_linear_289_1024" x1="1478.25" y1="545.358" x2="503.949" y2="-1194.28" gradientUnits="userSpaceOnUse">
<stop stop-color="white"/>
<stop offset="1" stop-color="#6D7EFF"/>
</linearGradient>
<linearGradient id="paint36_linear_289_1024" x1="1471.42" y1="553.169" x2="493.865" y2="-1192.28" gradientUnits="userSpaceOnUse">
<stop stop-color="white"/>
<stop offset="1" stop-color="#6D7EFF"/>
</linearGradient>
<linearGradient id="paint37_linear_289_1024" x1="1464.71" y1="560.927" x2="483.932" y2="-1190.28" gradientUnits="userSpaceOnUse">
<stop stop-color="white"/>
<stop offset="1" stop-color="#6D7EFF"/>
</linearGradient>
<linearGradient id="paint38_linear_289_1024" x1="1457.98" y1="568.711" x2="473.955" y2="-1188.29" gradientUnits="userSpaceOnUse">
<stop stop-color="white"/>
<stop offset="1" stop-color="#6D7EFF"/>
</linearGradient>
<linearGradient id="paint39_linear_289_1024" x1="1451.29" y1="576.517" x2="464.022" y2="-1186.29" gradientUnits="userSpaceOnUse">
<stop stop-color="white"/>
<stop offset="1" stop-color="#6D7EFF"/>
</linearGradient>
<linearGradient id="paint40_linear_289_1024" x1="1444.67" y1="584.263" x2="454.145" y2="-1184.36" gradientUnits="userSpaceOnUse">
<stop stop-color="white"/>
<stop offset="1" stop-color="#6D7EFF"/>
</linearGradient>
<linearGradient id="paint41_linear_289_1024" x1="1438.1" y1="591.989" x2="444.292" y2="-1182.49" gradientUnits="userSpaceOnUse">
<stop stop-color="white"/>
<stop offset="1" stop-color="#6D7EFF"/>
</linearGradient>
<linearGradient id="paint42_linear_289_1024" x1="1431.56" y1="599.713" x2="434.501" y2="-1180.56" gradientUnits="userSpaceOnUse">
<stop stop-color="white"/>
<stop offset="1" stop-color="#6D7EFF"/>
</linearGradient>
<linearGradient id="paint43_linear_289_1024" x1="1425.03" y1="607.433" x2="424.683" y2="-1178.72" gradientUnits="userSpaceOnUse">
<stop stop-color="white"/>
<stop offset="1" stop-color="#6D7EFF"/>
</linearGradient>
<linearGradient id="paint44_linear_289_1024" x1="1418.55" y1="615.139" x2="414.952" y2="-1176.82" gradientUnits="userSpaceOnUse">
<stop stop-color="white"/>
<stop offset="1" stop-color="#6D7EFF"/>
</linearGradient>
<linearGradient id="paint45_linear_289_1024" x1="1412.25" y1="622.797" x2="405.37" y2="-1175.01" gradientUnits="userSpaceOnUse">
<stop stop-color="white"/>
<stop offset="1" stop-color="#6D7EFF"/>
</linearGradient>
<linearGradient id="paint46_linear_289_1024" x1="1405.84" y1="630.479" x2="395.699" y2="-1173.16" gradientUnits="userSpaceOnUse">
<stop stop-color="white"/>
<stop offset="1" stop-color="#6D7EFF"/>
</linearGradient>
<linearGradient id="paint47_linear_289_1024" x1="1399.52" y1="638.119" x2="386.08" y2="-1171.42" gradientUnits="userSpaceOnUse">
<stop stop-color="white"/>
<stop offset="1" stop-color="#6D7EFF"/>
</linearGradient>
<linearGradient id="paint48_linear_289_1024" x1="1393.23" y1="645.758" x2="376.496" y2="-1169.65" gradientUnits="userSpaceOnUse">
<stop stop-color="white"/>
<stop offset="1" stop-color="#6D7EFF"/>
</linearGradient>
<linearGradient id="paint49_linear_289_1024" x1="1387.03" y1="653.354" x2="366.979" y2="-1167.97" gradientUnits="userSpaceOnUse">
<stop stop-color="white"/>
<stop offset="1" stop-color="#6D7EFF"/>
</linearGradient>
<linearGradient id="paint50_linear_289_1024" x1="1380.78" y1="660.985" x2="357.412" y2="-1166.26" gradientUnits="userSpaceOnUse">
<stop stop-color="white"/>
<stop offset="1" stop-color="#6D7EFF"/>
</linearGradient>
<linearGradient id="paint51_linear_289_1024" x1="1374.59" y1="668.619" x2="347.948" y2="-1164.48" gradientUnits="userSpaceOnUse">
<stop stop-color="white"/>
<stop offset="1" stop-color="#6D7EFF"/>
</linearGradient>
<linearGradient id="paint52_linear_289_1024" x1="1368.48" y1="676.181" x2="338.562" y2="-1162.78" gradientUnits="userSpaceOnUse">
<stop stop-color="white"/>
<stop offset="1" stop-color="#6D7EFF"/>
</linearGradient>
<linearGradient id="paint53_linear_289_1024" x1="1362.45" y1="683.852" x2="329.124" y2="-1161.18" gradientUnits="userSpaceOnUse">
<stop stop-color="white"/>
<stop offset="1" stop-color="#6D7EFF"/>
</linearGradient>
<linearGradient id="paint54_linear_289_1024" x1="1356.27" y1="691.458" x2="319.637" y2="-1159.48" gradientUnits="userSpaceOnUse">
<stop stop-color="white"/>
<stop offset="1" stop-color="#6D7EFF"/>
</linearGradient>
<linearGradient id="paint55_linear_289_1024" x1="1350.23" y1="698.994" x2="310.336" y2="-1157.78" gradientUnits="userSpaceOnUse">
<stop stop-color="white"/>
<stop offset="1" stop-color="#6D7EFF"/>
</linearGradient>
<linearGradient id="paint56_linear_289_1024" x1="1344.29" y1="706.483" x2="301.059" y2="-1156.23" gradientUnits="userSpaceOnUse">
<stop stop-color="white"/>
<stop offset="1" stop-color="#6D7EFF"/>
</linearGradient>
<linearGradient id="paint57_linear_289_1024" x1="1338.23" y1="714.08" x2="291.693" y2="-1154.54" gradientUnits="userSpaceOnUse">
<stop stop-color="white"/>
<stop offset="1" stop-color="#6D7EFF"/>
</linearGradient>
<linearGradient id="paint58_linear_289_1024" x1="1332.37" y1="721.539" x2="282.533" y2="-1152.97" gradientUnits="userSpaceOnUse">
<stop stop-color="white"/>
<stop offset="1" stop-color="#6D7EFF"/>
</linearGradient>
<linearGradient id="paint59_linear_289_1024" x1="1326.38" y1="729.06" x2="273.216" y2="-1151.4" gradientUnits="userSpaceOnUse">
<stop stop-color="white"/>
<stop offset="1" stop-color="#6D7EFF"/>
</linearGradient>
<linearGradient id="paint60_linear_289_1024" x1="1320.43" y1="736.58" x2="263.94" y2="-1149.81" gradientUnits="userSpaceOnUse">
<stop stop-color="white"/>
<stop offset="1" stop-color="#6D7EFF"/>
</linearGradient>
<linearGradient id="paint61_linear_289_1024" x1="1314.49" y1="744.088" x2="254.68" y2="-1148.23" gradientUnits="userSpaceOnUse">
<stop stop-color="white"/>
<stop offset="1" stop-color="#6D7EFF"/>
</linearGradient>
<linearGradient id="paint62_linear_289_1024" x1="1308.58" y1="751.593" x2="245.427" y2="-1146.69" gradientUnits="userSpaceOnUse">
<stop stop-color="white"/>
<stop offset="1" stop-color="#6D7EFF"/>
</linearGradient>
<linearGradient id="paint63_linear_289_1024" x1="1302.7" y1="759.107" x2="236.23" y2="-1145.1" gradientUnits="userSpaceOnUse">
<stop stop-color="white"/>
<stop offset="1" stop-color="#6D7EFF"/>
</linearGradient>
</defs>
</svg>
