<svg width="60" height="60" viewBox="0 0 60 60" fill="none" xmlns="http://www.w3.org/2000/svg">
<path d="M49.875 52.5C44.6667 52.5 39.5208 51.3646 34.4375 49.0938C29.3542 46.8229 24.7292 43.6042 20.5625 39.4375C16.3958 35.2708 13.1771 30.6458 10.9062 25.5625C8.63542 20.4792 7.5 15.3333 7.5 10.125C7.5 9.375 7.75 8.75 8.25 8.25C8.75 7.75 9.375 7.5 10.125 7.5H20.25C20.8333 7.5 21.3542 7.69792 21.8125 8.09375C22.2708 8.48958 22.5417 8.95833 22.625 9.5L24.25 18.25C24.3333 18.9167 24.3125 19.4792 24.1875 19.9375C24.0625 20.3958 23.8333 20.7917 23.5 21.125L17.4375 27.25C18.2708 28.7917 19.2604 30.2812 20.4062 31.7188C21.5521 33.1562 22.8125 34.5417 24.1875 35.875C25.4792 37.1667 26.8333 38.3646 28.25 39.4688C29.6667 40.5729 31.1667 41.5833 32.75 42.5L38.625 36.625C39 36.25 39.4896 35.9688 40.0938 35.7812C40.6979 35.5938 41.2917 35.5417 41.875 35.625L50.5 37.375C51.0833 37.5417 51.5625 37.8438 51.9375 38.2812C52.3125 38.7188 52.5 39.2083 52.5 39.75V49.875C52.5 50.625 52.25 51.25 51.75 51.75C51.25 52.25 50.625 52.5 49.875 52.5ZM15.0625 22.5L19.1875 18.375L18.125 12.5H12.5625C12.7708 14.2083 13.0625 15.8958 13.4375 17.5625C13.8125 19.2292 14.3542 20.875 15.0625 22.5ZM37.4375 44.875C39.0625 45.5833 40.7188 46.1458 42.4062 46.5625C44.0938 46.9792 45.7917 47.25 47.5 47.375V41.875L41.625 40.6875L37.4375 44.875Z" fill="#475096"/>
</svg>
